<svg version="1.1" id="Layer_1" xmlns="http://www.w3.org/2000/svg" xmlns:xlink="http://www.w3.org/1999/xlink" x="0px" y="0px"
	 width="100%" viewBox="0 0 1024 1024" enable-background="new 0 0 1024 1024" xml:space="preserve">
<path fill="#000000" opacity="1.000000" stroke="none" 
	d="
M904.395508,449.761749 
	C907.526978,464.692566 908.982910,479.416626 910.250793,494.155121 
	C911.881714,513.113770 911.640747,532.091858 910.273926,551.055481 
	C908.174805,580.180420 903.415161,608.841003 894.911621,636.817993 
	C884.242004,671.921448 869.472595,705.197632 849.309753,735.884399 
	C789.210327,827.352905 706.801025,887.628845 599.776611,912.919250 
	C566.423706,920.800659 532.435364,924.233704 498.183441,922.946350 
	C428.818298,920.339294 363.715179,902.228638 304.328522,865.975464 
	C213.605621,810.592773 152.465714,731.988586 122.381935,629.787170 
	C110.049232,587.890198 105.605949,544.872070 107.962463,501.371582 
	C113.011703,408.164124 147.327072,326.718475 209.138733,257.014832 
	C256.330353,203.797821 313.709564,165.527557 381.400665,143.199875 
	C409.911835,133.795547 439.116791,127.500725 469.069031,124.529709 
	C493.860352,122.070602 518.668457,121.618668 543.397522,123.882072 
	C625.951782,131.438141 699.641846,161.233398 763.766907,213.897476 
	C818.465881,258.820129 858.555542,314.548553 884.649780,380.312836 
	C893.510864,402.644867 900.067505,425.674744 904.395508,449.761749 
M359.436157,887.023682 
	C393.634979,901.170044 429.112885,910.501831 465.888977,914.544861 
	C489.589294,917.150452 513.367249,917.501404 537.207275,915.870361 
	C561.013672,914.241638 584.512878,910.898499 607.582458,904.868103 
	C683.217529,885.097229 747.677124,846.730774 800.581726,788.979858 
	C863.283386,720.534119 898.424744,640.205627 904.469727,547.552246 
	C906.477661,516.775818 904.934814,485.965240 899.434570,455.498718 
	C886.040039,381.303894 853.371826,316.512054 803.393066,260.378174 
	C764.578125,216.782990 718.045715,183.716354 664.497681,160.515549 
	C617.011108,139.940964 567.327759,129.421402 515.643066,128.397751 
	C492.800537,127.945335 470.058044,129.697617 447.494141,133.268524 
	C398.283386,141.056473 351.918549,157.082443 309.047821,182.558716 
	C241.253403,222.846100 189.671188,278.325409 154.228592,348.847443 
	C128.544754,399.951965 115.136772,454.123474 113.451454,511.171173 
	C112.638962,538.674072 115.013115,565.999207 120.074234,593.097290 
	C134.324783,669.397095 168.957840,735.317688 221.724503,791.793213 
	C260.476440,833.268921 306.414948,864.680115 359.436157,887.023682 
z"/>
<path fill="#000000" opacity="1.000000" stroke="none" 
	d="
M708.105835,853.179932 
	C669.279602,876.473450 627.944031,892.309265 583.885620,900.837036 
	C549.067505,907.576294 513.957153,909.445862 478.541779,906.491516 
	C435.501007,902.901062 394.224030,892.515076 354.785736,875.082336 
	C300.929352,851.276428 254.579254,817.182373 216.186691,772.427673 
	C169.895096,718.464844 140.446564,656.436035 128.032639,586.484741 
	C122.693726,556.400452 121.424553,526.020081 123.523438,495.450531 
	C128.835983,418.075043 155.991318,349.077423 202.910812,287.734192 
	C236.918060,243.272644 279.104309,208.269211 328.483032,181.969223 
	C366.753693,161.585602 407.489868,148.420013 450.292511,141.957138 
	C482.165497,137.144577 514.206421,136.336212 546.382568,139.497299 
	C625.634216,147.283279 696.030273,176.495056 756.796265,227.706238 
	C824.712585,284.943451 869.062988,357.001709 887.980896,444.120880 
	C894.610352,474.650574 897.473816,505.653778 896.070251,536.888123 
	C892.024536,626.918823 860.765503,706.191223 801.625366,774.390686 
	C774.654419,805.493164 743.646423,831.725281 708.105835,853.179932 
M378.628479,166.226669 
	C377.385376,166.701416 376.141205,167.173370 374.899323,167.651306 
	C301.456390,195.915543 241.669235,241.910126 196.697144,306.506805 
	C158.780334,360.969482 135.905106,421.210510 130.129639,487.639465 
	C127.741562,515.107056 128.088257,542.531006 131.523880,569.848633 
	C135.571869,602.035461 143.911530,633.168518 156.352570,663.149719 
	C184.704651,731.474182 228.615677,787.639221 288.883087,830.584290 
	C347.595856,872.421448 412.933105,896.283569 485.121918,900.933777 
	C519.211792,903.129761 553.061462,901.481201 586.426880,894.288696 
	C686.797791,872.651917 766.159302,819.155640 824.529175,734.879639 
	C863.209778,679.031555 884.706299,616.796204 889.427185,549.055420 
	C891.104980,524.981628 890.631409,500.760162 887.498596,476.733063 
	C882.206726,436.147980 871.164368,397.170868 852.886047,360.517731 
	C811.649902,277.827362 749.755371,216.038574 665.453247,177.373108 
	C602.665710,148.575363 536.706909,138.693466 468.181335,145.527390 
	C437.757111,148.561554 408.125305,155.478973 378.628479,166.226669 
z"/>
<path fill="#000000" opacity="1.000000" stroke="none" 
	d="
M458.612122,538.171326 
	C469.515503,540.802063 480.011902,543.313110 491.146332,545.976807 
	C479.073914,539.770630 467.173309,534.725403 454.601013,531.404968 
	C447.531219,529.537720 440.385376,527.925842 433.218231,526.472961 
	C429.422943,525.703613 427.922729,523.726868 427.923615,519.938049 
	C427.928070,501.110596 427.801849,482.283173 427.753845,463.455658 
	C427.747894,461.118866 427.642181,458.201355 430.782776,458.079102 
	C434.322937,457.941223 434.246948,461.017120 434.251587,463.535095 
	C434.283478,480.863251 434.361633,498.192261 434.208832,515.519104 
	C434.178040,519.008606 435.323578,520.674927 438.742950,521.300537 
	C458.014557,524.826172 476.241882,531.624329 494.619781,538.686096 
	C491.613464,536.652832 488.668732,534.519958 485.583588,532.614258 
	C482.469330,530.690613 479.274597,528.876770 476.012238,527.217102 
	C466.317017,522.284668 456.107483,518.660706 445.482819,516.458618 
	C440.953583,515.519836 439.614960,513.467590 439.660767,509.014374 
	C439.854523,490.188721 439.742889,471.359741 439.698669,452.532043 
	C439.690552,449.094360 440.192993,446.320770 444.693756,447.414825 
	C467.634674,452.991302 489.947510,460.031036 508.981079,474.802307 
	C516.380249,480.544556 516.417664,480.488647 523.999390,474.570099 
	C542.409851,460.198303 563.663330,452.366119 586.248047,447.701691 
	C591.674500,446.580933 592.260132,447.254242 592.271179,452.953186 
	C592.307861,471.947479 592.202454,490.942780 592.388916,509.935394 
	C592.427856,513.902893 590.928955,515.503784 587.207886,516.337708 
	C570.289856,520.129272 554.531494,526.633362 540.545593,537.071411 
	C539.788574,537.636414 539.056030,538.234253 538.655823,539.449402 
	C544.643311,537.089539 550.628418,534.723389 556.618958,532.371216 
	C568.422729,527.736511 580.506958,524.004578 593.000244,521.811096 
	C596.738159,521.154785 597.972168,519.527710 597.937561,515.850037 
	C597.779663,499.023163 597.824280,482.194366 597.802795,465.366241 
	C597.801086,464.034637 597.758362,462.693268 597.898621,461.373840 
	C598.072571,459.736877 598.942444,458.448792 600.675659,458.339050 
	C602.606873,458.216797 603.807495,459.356445 604.101135,461.255463 
	C604.278137,462.400146 604.267883,463.580322 604.269165,464.744659 
	C604.289001,483.072571 604.091553,501.404327 604.433533,519.726074 
	C604.535461,525.185181 601.846069,526.493286 597.435364,527.284180 
	C580.308716,530.355652 563.843323,535.548035 548.161987,543.140991 
	C547.608643,543.408936 547.097229,543.763306 546.778381,544.642212 
	C555.613525,542.586853 564.405945,540.319336 573.294800,538.531128 
	C583.882751,536.401184 594.508789,534.341492 605.208801,532.943359 
	C609.888733,532.331848 610.921448,530.456909 610.878418,526.228882 
	C610.708618,509.568878 610.805786,492.906158 610.805969,476.244415 
	C610.806030,475.078339 610.763855,473.908112 610.845520,472.747101 
	C611.002075,470.522308 611.876953,468.760437 614.422729,468.843018 
	C616.811646,468.920471 617.321716,470.721741 617.347046,472.713257 
	C617.408386,477.544281 617.471619,482.375641 617.482544,487.206940 
	C617.515259,501.686798 617.485046,516.166870 617.556702,530.646545 
	C617.593567,538.089172 617.641479,538.330444 610.499451,539.049866 
	C585.540588,541.563599 561.322693,547.370728 537.568420,555.248108 
	C532.042297,557.080688 526.592712,559.169617 521.197021,561.360168 
	C518.038513,562.642517 515.149353,562.512146 512.031372,561.250732 
	C482.533356,549.318054 451.808594,542.218994 420.293213,538.435059 
	C415.997284,537.919250 414.638489,536.209656 414.666046,532.097351 
	C414.793182,513.103821 414.724182,494.108948 414.726532,475.114563 
	C414.726593,474.614777 414.728882,474.114624 414.746918,473.615265 
	C414.829407,471.329041 415.171448,468.999451 418.043365,468.926575 
	C421.037781,468.850647 421.303833,471.224945 421.309235,473.506744 
	C421.331299,482.837219 421.332581,492.167786 421.332703,501.498322 
	C421.332794,510.162445 421.388855,518.827393 421.278107,527.490173 
	C421.240753,530.413086 421.987640,532.270142 425.239227,532.630432 
	C436.320496,533.858154 447.262665,535.962524 458.612122,538.171326 
M545.090393,468.623291 
	C537.115112,472.851990 529.722839,477.917236 522.916931,483.859680 
	C520.365723,486.087280 519.209290,488.606018 519.245422,492.113861 
	C519.408020,507.931274 519.292114,523.751465 519.356323,539.570251 
	C519.362366,541.062012 518.568726,542.905823 520.462646,544.069458 
	C520.933533,543.813477 521.431458,543.656067 521.781128,543.336426 
	C539.220032,527.393982 559.512268,516.739685 582.344055,510.929962 
	C585.944275,510.013885 586.075378,507.726257 586.068665,504.957947 
	C586.031860,489.805298 586.020447,474.652527 585.935120,459.500183 
	C585.926270,457.929199 586.339722,456.122925 584.381836,454.648712 
	C570.964966,457.207336 558.103088,462.002136 545.090393,468.623291 
M472.047913,518.309998 
	C486.846619,524.509644 499.917938,533.448425 511.915466,544.057373 
	C513.121216,542.473206 512.770813,541.101562 512.773621,539.818176 
	C512.805054,525.497009 512.198975,511.140442 513.036804,496.868073 
	C513.530090,488.464020 509.938232,483.507324 503.850769,478.994598 
	C488.039429,467.273376 469.963287,460.742828 451.254303,455.584412 
	C447.561432,454.566193 446.060028,455.920380 446.092407,459.765320 
	C446.222900,475.251556 446.240967,490.739075 446.210632,506.225983 
	C446.205170,509.013031 447.190186,510.326904 450.040131,510.978943 
	C457.343597,512.649963 464.418304,515.128906 472.047913,518.309998 
z"/>
<path fill="#000000" opacity="1.000000" stroke="none" 
	d="
M385.270020,657.111816 
	C402.547943,648.568298 420.205566,648.870178 438.317139,651.968750 
	C464.530640,656.453369 490.635986,661.584717 517.002808,665.192200 
	C523.418884,666.070129 529.398499,665.044434 535.019043,662.526917 
	C555.842285,653.200317 576.622375,643.765015 597.226379,633.966187 
	C610.975525,627.427490 620.337341,615.583740 630.324097,604.666809 
	C639.544617,594.587463 648.525024,584.251831 655.513977,572.425354 
	C657.454651,569.141357 660.845093,565.494934 657.376465,561.568298 
	C654.055908,557.809265 649.457092,558.846985 645.231873,560.130249 
	C639.103882,561.991455 634.787354,566.557373 630.266174,570.701538 
	C621.057739,579.141907 612.949158,588.732422 603.235779,596.653687 
	C595.769104,602.742798 587.110413,606.600891 578.199463,609.947571 
	C576.286987,610.665771 573.998718,610.839111 573.057556,608.425537 
	C572.178833,606.172058 573.419739,604.426025 575.561584,603.715942 
	C595.027222,597.262451 608.561279,582.875122 622.383850,568.860657 
	C625.176514,566.029175 628.003357,563.231567 631.221497,560.011047 
	C625.961975,558.192383 621.997009,560.093750 618.384155,562.696777 
	C614.878479,565.222595 611.694092,568.164917 608.773071,571.405579 
	C600.285767,580.821655 591.535095,589.972229 580.857422,597.007324 
	C579.606689,597.831421 578.368713,598.698914 577.035706,599.368896 
	C575.114258,600.334717 572.916016,601.659546 571.341309,599.066772 
	C569.712219,596.384460 571.419678,594.790283 573.693726,593.517212 
	C581.928772,588.906982 588.802795,582.623291 595.231201,575.812744 
	C596.565247,574.399414 597.761047,572.855713 599.405273,570.919006 
	C594.563782,569.691711 591.750244,572.106628 589.144226,574.512756 
	C583.885010,579.368469 578.823730,584.438232 573.651611,589.389160 
	C572.814026,590.190979 571.875793,590.913757 570.897339,591.536743 
	C569.094788,592.684448 567.375610,592.519531 566.056213,590.757263 
	C564.795044,589.072754 565.446472,587.564148 566.870972,586.384460 
	C573.181946,581.158203 578.313354,574.743896 584.267700,569.171692 
	C589.017578,564.726685 594.828674,562.523376 601.271362,564.099976 
	C604.634033,564.922852 606.556396,563.862854 608.678162,561.688538 
	C613.306946,556.945129 618.727173,553.505798 625.370728,552.242676 
	C627.201355,551.894653 629.271057,551.310974 630.764587,552.263855 
	C636.064392,555.645264 641.260925,554.363159 646.622498,552.653381 
	C649.181763,551.837280 651.857910,551.950623 654.531677,552.527222 
	C663.769043,554.519287 667.793091,561.779114 664.241394,570.607849 
	C661.032654,578.584290 655.760559,585.310364 650.426880,591.922852 
	C642.059692,602.296204 633.137451,612.177551 624.060181,621.949951 
	C614.186462,632.579773 602.362061,639.913147 589.280518,645.729065 
	C574.063721,652.494263 558.846802,659.295593 543.926086,666.679565 
	C530.258667,673.443298 516.424622,672.788269 502.031769,670.101135 
	C477.849182,665.586121 453.553864,661.676025 429.312103,657.476196 
	C408.840851,653.929688 390.914825,660.558899 373.939789,671.158325 
	C365.305664,676.549561 357.160095,682.615784 349.111084,688.823303 
	C348.319977,689.433411 347.559570,690.089539 346.731110,690.643738 
	C344.756195,691.964844 342.565430,693.534241 340.585602,691.009766 
	C338.624878,688.509705 340.500000,686.634338 342.373016,685.124451 
	C353.022980,676.538940 364.079193,668.528015 376.035156,661.832397 
	C378.939392,660.205933 381.961212,658.789307 385.270020,657.111816 
z"/>
<path fill="#000000" opacity="1.000000" stroke="none" 
	d="
M538.297607,378.000000 
	C538.304688,388.490662 538.323242,398.481323 538.314026,408.471985 
	C538.298218,425.662262 528.810974,437.320770 511.938995,441.046265 
	C505.948700,442.368988 500.115540,442.261475 494.264282,440.232697 
	C481.870026,435.935333 477.016571,423.927795 482.668274,411.996216 
	C489.230469,398.142487 511.717560,386.685883 527.765381,396.577820 
	C528.308411,396.912506 528.985046,397.030243 529.625732,397.258484 
	C531.463928,395.556946 530.690918,393.431976 530.698914,391.561615 
	C530.835266,359.591949 530.905762,327.621979 530.994324,295.652100 
	C530.998047,294.320526 531.002808,292.987366 531.068481,291.657990 
	C531.159851,289.811127 531.902283,288.408203 533.921265,288.159058 
	C535.968628,287.906372 537.748657,288.549591 538.117371,290.734467 
	C540.193665,303.037689 548.660034,310.654510 557.572998,318.160400 
	C574.093384,332.072815 578.759338,350.693695 570.930664,370.280304 
	C570.188354,372.137573 569.912354,374.626648 566.850647,375.004822 
	C564.877136,372.822327 566.574341,370.607208 567.079163,368.605164 
	C571.789673,349.922516 561.909180,331.839020 543.589600,325.902283 
	C542.208313,325.454651 540.736389,325.286530 538.296692,324.777985 
	C538.296692,342.711975 538.296692,360.105988 538.297607,378.000000 
z"/>
<path fill="#000000" opacity="1.000000" stroke="none" 
	d="
M510.541687,617.354004 
	C521.814270,617.846680 532.626587,618.250000 543.437622,618.684265 
	C546.141113,618.792908 548.773376,618.385559 551.305603,617.533264 
	C557.362366,615.494751 560.038940,609.324341 557.620728,603.446960 
	C555.485596,598.257629 551.183167,595.569214 546.405396,593.363281 
	C536.177124,588.640930 525.112854,587.890198 514.195618,587.533508 
	C500.934662,587.100281 488.594513,583.835327 476.604401,578.541321 
	C461.585175,571.909851 446.032959,567.300476 429.536896,566.275330 
	C410.791901,565.110535 394.029388,570.653625 378.847321,581.322998 
	C366.173157,590.229858 353.452820,599.052368 340.057281,606.856873 
	C339.050232,607.443665 338.055969,608.054260 337.031860,608.609619 
	C335.046661,609.686035 332.940887,610.720093 331.411743,608.087341 
	C329.781067,605.279846 331.719543,603.810364 333.851196,602.536926 
	C337.282349,600.487244 340.756805,598.506653 344.140533,596.381592 
	C352.745117,590.977661 361.331421,585.528137 369.355499,579.281433 
	C398.522675,556.574951 430.560181,554.867798 464.347473,566.273010 
	C470.330475,568.292725 476.162476,570.799622 481.959534,573.322021 
	C492.943085,578.101135 504.334473,580.621277 516.348267,580.764893 
	C526.698181,580.888611 536.937317,582.276855 546.715820,585.885254 
	C554.245789,588.664062 560.880554,592.667542 563.960388,600.694580 
	C568.673401,612.978271 561.455750,624.614807 548.315552,625.204163 
	C533.336304,625.876099 518.377197,624.932556 503.427338,623.728027 
	C490.665924,622.699768 477.877960,621.396851 465.049255,622.674194 
	C462.418793,622.936157 459.521210,623.419434 459.201233,619.991882 
	C458.866150,616.402527 462.012512,616.013733 464.738129,615.728210 
	C474.722015,614.682434 484.688965,615.623840 494.654144,616.084900 
	C499.803772,616.323120 504.939117,616.869263 510.541687,617.354004 
z"/>
</svg>